<?xml version="1.0" encoding="UTF-8" standalone="no"?>
<!-- Created with Inkscape (http://www.inkscape.org/) -->

<svg
   width="512"
   height="512"
   viewBox="0 0 135.46666 135.46667"
   version="1.1"
   id="svg5"
   inkscape:version="1.1 (c68e22c387, 2021-05-23)"
   sodipodi:docname="euro.svg"
   xmlns:inkscape="http://www.inkscape.org/namespaces/inkscape"
   xmlns:sodipodi="http://sodipodi.sourceforge.net/DTD/sodipodi-0.dtd"
   xmlns="http://www.w3.org/2000/svg"
   xmlns:svg="http://www.w3.org/2000/svg">
  <sodipodi:namedview
     id="namedview7"
     pagecolor="#505050"
     bordercolor="#eeeeee"
     borderopacity="1"
     inkscape:pageshadow="0"
     inkscape:pageopacity="0"
     inkscape:pagecheckerboard="0"
     inkscape:document-units="mm"
     showgrid="false"
     units="px"
     inkscape:zoom="0.67081229"
     inkscape:cx="54.411645"
     inkscape:cy="207.95683"
     inkscape:window-width="1920"
     inkscape:window-height="1057"
     inkscape:window-x="-8"
     inkscape:window-y="-8"
     inkscape:window-maximized="1"
     inkscape:current-layer="layer1"
     inkscape:lockguides="true" />
  <defs
     id="defs2" />
  <g
     inkscape:label="Layer 1"
     inkscape:groupmode="layer"
     id="layer1">
    <path
       style="fill:#f59338;stroke-width:0.27811;fill-opacity:1"
       d="M 82.769123,115.06177 C 65.821188,114.11597 50.399616,103.78716 42.861983,88.333417 L 41.476155,85.492174 H 33.253722 25.0313 l -1.463831,-0.729463 c -3.655905,-1.821807 -4.364901,-6.3706 -1.447644,-9.287856 1.784225,-1.784228 2.608194,-1.941441 10.175038,-1.941441 5.8585,0 6.28284,-0.03357 6.157231,-0.486699 -0.291909,-1.053132 -0.4338,-6.184799 -0.238375,-8.621431 l 0.206327,-2.572524 h -6.04001 c -7.525315,0 -8.502453,-0.183685 -10.244581,-1.925812 -0.985074,-0.985077 -1.386405,-1.648529 -1.642187,-2.714728 -0.643584,-2.682761 0.604714,-5.358167 3.074201,-6.588763 L 25.0313,49.893998 h 8.222422 8.222433 l 1.385828,-2.841247 c 4.66177,-9.557629 12.118773,-17.068994 21.690884,-21.849026 14.257984,-7.120017 31.283524,-6.510894 45.034213,1.611194 3.42081,2.020563 4.78126,3.328953 5.30892,5.105762 0.93527,3.149408 -0.82013,6.383073 -3.96069,7.296059 -2.02705,0.589277 -3.08775,0.356548 -5.77826,-1.267805 -4.54635,-2.74477 -8.087834,-4.194054 -12.718524,-5.204806 -3.211213,-0.700917 -10.535836,-0.690319 -13.841064,0.02002 -9.394934,2.019134 -17.412122,7.413137 -22.670146,15.25259 l -1.259093,1.877248 15.788647,0.0017 c 10.272751,0.0011 16.159863,0.104629 16.851241,0.296617 0.584427,0.162289 1.547029,0.732722 2.139105,1.267628 2.999249,2.709636 2.426247,7.564247 -1.128224,9.558633 l -1.239154,0.695277 -18.35531,0.139055 -18.35531,0.139055 -0.184211,1.390554 c -0.237386,1.791859 -0.237386,6.829577 0,8.621437 l 0.184211,1.390552 18.35531,0.139054 18.35531,0.139053 1.239154,0.695277 c 3.554471,1.994389 4.127473,6.849001 1.128224,9.558633 -0.592076,0.534909 -1.554678,1.105344 -2.139105,1.267631 -0.691378,0.191981 -6.57849,0.295608 -16.851241,0.296617 l -15.788647,0.0014 1.259093,1.877244 c 5.248289,7.824951 13.292598,13.237196 22.670146,15.252586 3.305228,0.71036 10.629851,0.72096 13.841064,0.02 4.63069,-1.01074 8.172174,-2.46003 12.718524,-5.204809 2.69051,-1.624353 3.75121,-1.857076 5.77826,-1.267796 4.25508,1.236977 5.65531,6.644845 2.50396,9.670575 -3.267,3.13676 -11.5624,6.90581 -18.292268,8.31117 -2.49173,0.52035 -8.571495,1.14377 -10.15299,1.04109 -0.3824,-0.0248 -1.383598,-0.0836 -2.224889,-0.1305 z"
       id="path1027" />
  </g>
</svg>
