<?xml version="1.0" encoding="UTF-8" standalone="no"?>
<!-- Created with Inkscape (http://www.inkscape.org/) -->

<svg
   width="512"
   height="512"
   viewBox="0 0 135.46666 135.46667"
   version="1.1"
   id="svg5"
   inkscape:version="1.1 (c68e22c387, 2021-05-23)"
   sodipodi:docname="pin.svg"
   xmlns:inkscape="http://www.inkscape.org/namespaces/inkscape"
   xmlns:sodipodi="http://sodipodi.sourceforge.net/DTD/sodipodi-0.dtd"
   xmlns="http://www.w3.org/2000/svg"
   xmlns:svg="http://www.w3.org/2000/svg">
  <sodipodi:namedview
     id="namedview7"
     pagecolor="#505050"
     bordercolor="#eeeeee"
     borderopacity="1"
     inkscape:pageshadow="0"
     inkscape:pageopacity="0"
     inkscape:pagecheckerboard="0"
     inkscape:document-units="mm"
     showgrid="false"
     units="px"
     inkscape:zoom="0.67081229"
     inkscape:cx="330.19669"
     inkscape:cy="252.67873"
     inkscape:window-width="1920"
     inkscape:window-height="1057"
     inkscape:window-x="-8"
     inkscape:window-y="-8"
     inkscape:window-maximized="1"
     inkscape:current-layer="layer1"
     inkscape:lockguides="true" />
  <defs
     id="defs2" />
  <g
     inkscape:label="Layer 1"
     inkscape:groupmode="layer"
     id="layer1">
    <path
       style="fill:#f59338;stroke-width:0.308121;fill-opacity:1"
       d="m 63.732629,135.05437 c -2.75205,-0.5932 -5.96319,-2.24836 -8.14523,-4.1984 -1.24569,-1.11323 -6.8385,-8.31509 -17.54148,-22.58811 -8.64202,-11.524605 -16.32297,-21.896812 -17.06882,-23.049352 -1.87387,-2.895717 -4.79952,-9.057783 -5.88414,-12.393251 -8.5540802,-26.306199 3.28208,-54.656446 27.96767,-66.9887558 21.32127,-10.65157 46.92078,-6.46431002 63.824801,10.4397298 14.80335,14.80334 19.99713,36.562384 13.498,56.549026 -1.0846,3.335468 -4.01026,9.497534 -5.88414,12.393251 -3.07614,4.753591 -32.853131,44.061562 -34.549271,45.607772 -4.22566,3.8521 -10.44241,5.47289 -16.21739,4.22809 z m 6.71527,-12.50431 c 1.22386,-0.59245 3.02747,-2.87916 17.5908,-22.30264 17.293961,-23.065348 18.325911,-24.619301 20.456561,-30.804432 1.7729,-5.146601 2.21099,-7.920131 2.21444,-14.019528 0.002,-4.5131 -0.11291,-5.913535 -0.70888,-8.590589 -1.89011,-8.49168 -5.34944,-15.04507 -11.126971,-21.07902 -6.39066,-6.67432 -13.8617,-10.79344 -23.1245,-12.74958 -3.66976,-0.77499 -12.35254,-0.77499 -16.02232,0 -8.5631,1.80838 -15.58137,5.46473 -21.65845,11.28353 -5.31394,5.08812 -8.94297,10.7266 -11.12509,17.285254 -1.80296,5.419028 -2.17757,7.801781 -2.17757,13.850405 0,7.771586 1.06565,12.380035 4.45307,19.257595 1.64022,3.330198 3.44079,5.857615 18.12742,25.445095 14.46911,19.29739 16.45834,21.82289 17.65578,22.4156 1.72533,0.85401 3.69254,0.85701 5.44571,0.008 z m -6.71527,-49.120003 c -8.16423,-1.7598 -14.47102,-9.607483 -14.47102,-18.006597 0,-9.951196 8.52539,-18.476589 18.47658,-18.476589 9.9595,0 18.47661,8.517089 18.47661,18.476589 0,8.477702 -6.33339,16.28289 -14.62509,18.023754 -2.64979,0.556334 -5.22256,0.550717 -7.85708,-0.01717 z m 7.44988,-12.942359 c 3.8519,-2.713141 3.49547,-8.306659 -0.67121,-10.534007 -2.91204,-1.55666 -6.61716,-0.344516 -8.24288,2.696665 -1.55666,2.912033 -0.3445,6.617157 2.69669,8.242872 1.93383,1.033748 4.40262,0.87273 6.2174,-0.40553 z"
       id="path852"
       sodipodi:nodetypes="ssssssssssscsscssssssssssccssssssssssss" />
  </g>
</svg>
