<?xml version="1.0" encoding="UTF-8" standalone="no"?>
<!-- Created with Inkscape (http://www.inkscape.org/) -->

<svg
   width="512"
   height="512"
   viewBox="0 0 135.46666 135.46667"
   version="1.1"
   id="svg5"
   inkscape:version="1.1 (c68e22c387, 2021-05-23)"
   sodipodi:docname="speaks.svg"
   xmlns:inkscape="http://www.inkscape.org/namespaces/inkscape"
   xmlns:sodipodi="http://sodipodi.sourceforge.net/DTD/sodipodi-0.dtd"
   xmlns="http://www.w3.org/2000/svg"
   xmlns:svg="http://www.w3.org/2000/svg">
  <sodipodi:namedview
     id="namedview7"
     pagecolor="#505050"
     bordercolor="#eeeeee"
     borderopacity="1"
     inkscape:pageshadow="0"
     inkscape:pageopacity="0"
     inkscape:pagecheckerboard="0"
     inkscape:document-units="mm"
     showgrid="false"
     units="px"
     inkscape:zoom="0.67081229"
     inkscape:cx="93.170625"
     inkscape:cy="386.84443"
     inkscape:window-width="1920"
     inkscape:window-height="1057"
     inkscape:window-x="-8"
     inkscape:window-y="-8"
     inkscape:window-maximized="1"
     inkscape:current-layer="layer1"
     inkscape:lockguides="true" />
  <defs
     id="defs2" />
  <g
     inkscape:label="Layer 1"
     inkscape:groupmode="layer"
     id="layer1">
    <path
       style="fill:#f59338;fill-opacity:1;stroke-width:0.264566"
       d="M 102.95255,119.81308 86.152544,112.89714 70.54309,112.75046 54.933653,112.6038 52.796359,111.88585 c -3.755506,-1.26151 -6.6695,-3.47863 -8.842837,-6.72803 -1.548575,-2.31531 -2.559182,-5.31074 -2.845847,-8.435047 l -0.19608,-2.137127 -12.532277,5.113503 c -6.892756,2.812431 -12.57763,5.113501 -12.633069,5.113501 -0.0554,0 -0.100784,-3.13469 -0.100784,-6.965969 V 90.88071 l -2.108072,-0.453 C 7.0400114,89.031491 1.7655191,83.800053 0.43269205,77.429969 c -0.5769176,-2.757327 -0.5769176,-52.537154 0,-55.29449 C 1.7486738,15.845885 7.1070438,10.487515 13.396647,9.1715329 c 2.768014,-0.5791564 64.961112,-0.5791564 67.729127,0 5.94364,1.2435931 11.056135,6.0788991 12.728087,12.0379651 0.240449,0.857006 0.468905,3.113524 0.555822,5.489761 l 0.147548,4.034653 13.126789,0.0044 c 14.61362,0.0044 15.00437,0.04163 18.48823,1.760412 2.26235,1.116182 5.12849,3.660592 6.57029,5.83277 0.55019,0.8289 1.36465,2.524325 1.80992,3.767596 l 0.80954,2.260498 0.0735,26.504732 c 0.0825,29.75431 0.14678,28.609501 -1.83331,32.62519 -1.52864,3.10011 -4.25396,5.80701 -7.3869,7.33697 -1.92375,0.93945 -2.94244,1.24887 -5.93355,1.80222 -0.51309,0.0949 -0.52654,0.27264 -0.44362,5.864 0.047,3.17135 0.047,6.32201 0,7.00145 l -0.0855,1.23535 z m 8.99528,-9.94699 V 104.866 l 4.4315,-0.0971 c 4.1228,-0.0903 4.53558,-0.14555 5.92575,-0.79338 1.90039,-0.88558 3.52599,-2.50963 4.41934,-4.415115 L 127.425,98.066156 V 71.609497 45.152809 l -0.78281,-1.546414 c -0.97439,-1.924892 -2.88966,-3.678945 -4.79582,-4.392131 -1.39223,-0.520895 -1.98713,-0.543341 -14.39472,-0.543341 H 94.509178 l -0.0907,19.114956 c -0.08022,16.915262 -0.141416,19.282414 -0.531782,20.570071 -1.405016,4.634636 -4.626126,8.55322 -8.669115,10.546293 -3.766324,1.856692 -4.011851,1.878589 -21.120293,1.883763 l -15.176479,0.0052 0.09999,3.639967 c 0.0915,3.329801 0.162355,3.767481 0.832008,5.13621 0.930772,1.902417 2.468947,3.441177 4.376122,4.377747 l 1.498414,0.73585 15.637317,0.076 15.637309,0.076 12.274507,5.00975 c 6.750974,2.75536 12.363794,5.01298 12.472934,5.01693 0.10913,0.004 0.19842,-2.24287 0.19842,-4.99292 z M 32.250562,89.585929 c 4.472542,-1.826669 9.917725,-4.058955 12.100399,-4.960626 l 3.96851,-1.639421 15.874012,-0.132288 15.87403,-0.132288 1.675715,-0.908517 c 1.84739,-1.001602 3.157884,-2.418376 4.073544,-4.40389 L 86.41712,76.107141 V 49.782733 23.458324 L 85.716554,21.964057 C 84.824412,20.061149 83.200095,18.43685 81.297205,17.544707 L 79.802937,16.844142 H 47.128922 14.454908 l -1.3792,0.727061 c -1.99458,1.051467 -3.047327,2.075993 -4.0687268,3.959686 L 8.1053009,23.193748 V 49.782733 76.3717 l 0.6529739,1.322845 c 0.8361459,1.69391 2.6869502,3.542554 4.3737962,4.368666 1.218037,0.596524 1.684416,0.65523 5.886616,0.740971 l 4.563779,0.09309 v 5.004917 c 0,3.204169 0.09649,5.004917 0.268104,5.004917 0.147443,0 3.927442,-1.494538 8.399992,-3.321206 z M 23.582466,49.782733 v -3.96851 h 3.968501 3.968501 v 3.96851 3.968501 h -3.968501 -3.968501 z m 19.754333,3.792122 c -0.09699,-0.097 -0.176378,-1.88283 -0.176378,-3.968501 v -3.792131 h 3.968501 3.968501 v 3.96851 3.968501 H 47.3053 c -2.08567,0 -3.871497,-0.07935 -3.968501,-0.176379 z m 19.666144,-3.792122 v -3.96851 h 3.968501 3.968501 v 3.96851 3.968501 h -3.968501 -3.968501 z"
       id="path1280"
       inkscape:export-filename="C:\Users\Costa\Documents\GitHub\up_your_game\src\img\chat.png"
       inkscape:export-xdpi="96"
       inkscape:export-ydpi="96" />
  </g>
</svg>
