<?xml version="1.0" encoding="UTF-8" standalone="no"?>
<!-- Created with Inkscape (http://www.inkscape.org/) -->

<svg
   width="512"
   height="512"
   viewBox="0 0 135.46666 135.46667"
   version="1.1"
   id="svg5"
   inkscape:version="1.1 (c68e22c387, 2021-05-23)"
   sodipodi:docname="teaches.svg"
   xmlns:inkscape="http://www.inkscape.org/namespaces/inkscape"
   xmlns:sodipodi="http://sodipodi.sourceforge.net/DTD/sodipodi-0.dtd"
   xmlns="http://www.w3.org/2000/svg"
   xmlns:svg="http://www.w3.org/2000/svg">
  <sodipodi:namedview
     id="namedview7"
     pagecolor="#505050"
     bordercolor="#eeeeee"
     borderopacity="1"
     inkscape:pageshadow="0"
     inkscape:pageopacity="0"
     inkscape:pagecheckerboard="0"
     inkscape:document-units="mm"
     showgrid="false"
     units="px"
     inkscape:zoom="0.67081229"
     inkscape:cx="193.04953"
     inkscape:cy="318.27085"
     inkscape:window-width="1920"
     inkscape:window-height="1057"
     inkscape:window-x="-8"
     inkscape:window-y="-8"
     inkscape:window-maximized="1"
     inkscape:current-layer="layer1"
     inkscape:lockguides="true" />
  <defs
     id="defs2" />
  <g
     inkscape:label="Layer 1"
     inkscape:groupmode="layer"
     id="layer1">
    <path
       style="fill:#f59338;fill-opacity:1;stroke-width:0.264772"
       d="m 117.73762,121.14592 c -1.63399,-1.09158 -1.8255,-1.84799 -1.82597,-7.21226 l -4.1e-4,-4.76838 -5.31383,-5.29298 c -2.92261,-2.91112 -5.54385,-5.735006 -5.82499,-6.275299 -0.57262,-1.10045 -0.64859,-2.194018 -0.22946,-3.302977 0.15495,-0.409943 2.77619,-3.25101 5.82499,-6.313494 l 5.54329,-5.56812 V 65.938217 c 0,-9.060802 -0.0911,-16.474194 -0.2024,-16.474194 -0.11131,0 -2.28575,0.75475 -4.8321,1.677219 l -4.62969,1.677226 -0.1324,13.76662 -0.13238,13.766621 -0.72197,0.946336 c -2.46263,3.227898 -8.304373,6.713028 -15.010831,8.955299 -6.386087,2.135159 -12.785972,3.112508 -21.864902,3.339072 C 50.234451,94.045333 35.929304,90.259421 28.304173,82.984992 25.476441,80.287323 25.636555,81.310724 25.628009,65.879932 l -0.007,-13.371016 -11.84698,-4.363189 C 3.6239067,44.407488 1.8052867,43.657387 1.0770757,42.90881 -0.40406732,41.38624 -0.35141932,38.965588 1.1950597,37.483975 2.1744607,36.545653 65.052271,13.719722 66.657649,13.719722 c 0.71277,0 11.169335,3.66237 32.894065,11.521015 30.021066,10.859742 31.897386,11.575234 32.689966,12.465685 1.47777,1.660225 1.36074,3.962664 -0.27864,5.481988 -0.36087,0.334448 -2.33171,1.198177 -4.37965,1.919402 l -3.72351,1.311327 -0.003,17.996636 -0.003,17.996635 5.53558,5.56812 c 8.1032,8.150847 8.1032,7.486567 0,15.6374 l -5.53536,5.56813 -5.3e-4,4.75799 c -2.5e-4,4.00141 -0.0741,4.90451 -0.46335,5.67943 -0.6644,1.32266 -1.98728,2.12346 -3.5077,2.12346 -0.85419,0 -1.52823,-0.18885 -2.14522,-0.60102 z m 5.19162,-22.435717 2.90499,-2.914024 -2.9757,-2.975684 -2.9757,-2.975698 -2.9757,2.975698 -2.97568,2.975684 2.90498,2.914024 c 1.59775,1.602707 2.96863,2.914017 3.0464,2.914017 0.0778,0 1.44867,-1.31131 3.04641,-2.914017 z M 77.962724,84.982209 c 8.846345,-1.364365 16.180885,-4.11626 19.745409,-7.408416 L 98.436264,76.9013 V 66.359938 c 0,-6.693579 -0.09457,-10.54137 -0.258979,-10.54137 -0.142431,0 -7.26151,2.527725 -15.820159,5.617178 -10.774123,3.88918 -15.887008,5.61379 -16.620282,5.606151 -0.708017,-0.0072 -6.177167,-1.913302 -16.498805,-5.749571 C 40.746198,58.136134 33.746273,55.5538 33.682648,55.5538 c -0.06364,0 -0.115683,4.882277 -0.115683,10.849519 v 10.84951 l 1.294626,1.023346 c 3.928558,3.105346 11.415201,5.657872 19.887187,6.78042 4.646922,0.615715 4.929154,0.627908 12.576701,0.542996 5.552861,-0.06164 7.927638,-0.199481 10.637245,-0.617382 z M 91.87428,49.570913 c 14.08434,-5.078034 25.52252,-9.307866 25.41817,-9.399652 -0.32533,-0.286124 -50.207242,-18.25138 -50.665269,-18.247376 -0.377711,0.0032 -50.767335,18.152201 -50.974794,18.359656 -0.137758,0.137759 50.072218,18.68897 50.349226,18.602662 0.145625,-0.0453 11.788328,-4.237264 25.872667,-9.31529 z"
       id="path926"
       inkscape:export-filename="C:\Users\Costa\Documents\GitHub\up_your_game\src\img\graduation-cap.png"
       inkscape:export-xdpi="96"
       inkscape:export-ydpi="96" />
  </g>
</svg>
